<svg width="24" height="24" viewBox="0 0 24 24" fill="none" xmlns="http://www.w3.org/2000/svg">
<path d="M19.9688 6.46875C19.9688 6.332 19.9144 6.20085 19.8177 6.10415C19.721 6.00745 19.5899 5.95312 19.4531 5.95312H4.73438C4.59762 5.95312 4.46647 6.00745 4.36977 6.10415C4.27307 6.20085 4.21875 6.332 4.21875 6.46875V15.4219C4.21875 15.5586 4.27307 15.6898 4.36977 15.7865C4.46647 15.8832 4.59762 15.9375 4.73438 15.9375H19.4531C19.5899 15.9375 19.721 15.8832 19.8177 15.7865C19.9144 15.6898 19.9688 15.5586 19.9688 15.4219V6.46875ZM4.875 6.60938H19.3125V15.2812H4.875V6.60938Z" fill="#0F0F0F"/>
<path d="M21.7031 16.9256V5.51667C21.7031 4.76166 21.0772 4.125 20.3222 4.125H3.86908C3.11392 4.125 2.48435 4.76166 2.48435 5.51667V16.8979C1.73435 16.9583 1.13013 17.6076 1.13013 18.3839C1.13185 18.7782 1.289 19.1559 1.56748 19.4351C1.84596 19.7142 2.2233 19.8723 2.61761 19.875H21.3823C21.7491 19.8733 22.1024 19.7366 22.3748 19.491C22.6472 19.2454 22.8197 18.9082 22.8594 18.5435C22.899 18.1789 22.8031 17.8124 22.5898 17.514C22.3766 17.2156 22.0609 17.0062 21.7031 16.9256ZM3.86894 4.78125H20.3221C20.7152 4.78125 21.0467 5.12344 21.0467 5.51667V16.875H15C14.532 16.875 14.1515 17.2742 14.1515 17.7422C14.1521 17.7952 14.1326 17.8464 14.0968 17.8855C14.0611 17.9247 14.0119 17.9488 13.9591 17.9531H9.79474C9.74196 17.9488 9.69279 17.9246 9.65713 17.8855C9.62147 17.8463 9.60197 17.7951 9.60255 17.7422C9.60255 17.2743 9.22183 16.875 8.75388 16.875H3.1406V5.51667C3.14341 5.32372 3.22083 5.13935 3.35662 5.00224C3.49241 4.86513 3.67602 4.78593 3.86894 4.78125ZM21.965 18.966C21.8892 19.0444 21.7988 19.107 21.6988 19.1504C21.5988 19.1937 21.4913 19.217 21.3823 19.2188H2.61761C2.16349 19.2188 1.79402 18.8292 1.79402 18.375C1.79402 17.9208 2.16349 17.5312 2.61761 17.5312H8.75355C8.80636 17.5355 8.85559 17.5597 8.8913 17.5988C8.92701 17.638 8.94655 17.6892 8.94597 17.7422C8.94597 18.2102 9.32669 18.6094 9.79441 18.6094H13.9588C14.4267 18.6094 14.8075 18.2101 14.8075 17.7422C14.8069 17.6892 14.8264 17.6379 14.8621 17.5988C14.8979 17.5596 14.9471 17.5355 15 17.5312H21.3823C21.602 17.5348 21.8115 17.6246 21.9655 17.7813C22.1196 17.9379 22.206 18.1489 22.2059 18.3686C22.2069 18.5916 22.1204 18.806 21.965 18.966Z" fill="#0F0F0F"/>
</svg>
