<svg width="40" height="40" viewBox="0 0 40 40" fill="none" xmlns="http://www.w3.org/2000/svg">
<rect width="40" height="40" fill="url(#paint0_radial)"/>
<rect width="40" height="40" fill="url(#paint1_radial)"/>
<path fill-rule="evenodd" clip-rule="evenodd" d="M24.8124 13.7453C24.8124 14.5168 25.4392 15.1423 26.2125 15.1423C26.9858 15.1423 27.6126 14.5168 27.6126 13.7453C27.6126 12.9737 26.9858 12.3482 26.2125 12.3482C25.4392 12.3482 24.8124 12.9737 24.8124 13.7453ZM16.0948 19.9598C16.0948 17.8166 17.8361 16.0791 19.9841 16.0791C22.1321 16.0791 23.8734 17.8166 23.8734 19.9598C23.8734 22.1031 22.1321 23.8405 19.9841 23.8405C17.8361 23.8405 16.0948 22.1031 16.0948 19.9598ZM19.9842 25.9381C16.6751 25.9381 13.9926 23.2615 13.9926 19.9598C13.9926 16.658 16.6751 13.9815 19.9842 13.9815C23.2933 13.9815 25.9758 16.658 25.9758 19.9598C25.9758 23.2615 23.2933 25.9381 19.9842 25.9381M29.456 10.5439C28.9866 10.0744 28.5396 9.78361 27.9133 9.54023C27.4405 9.35645 26.73 9.1379 25.4218 9.0782C24.007 9.01366 23.5826 9 20 9C16.4173 9 15.993 9.01366 14.5781 9.0782C13.2699 9.1379 12.5595 9.35645 12.0867 9.54023C11.4604 9.78361 11.0134 10.0744 10.5439 10.5439C10.0744 11.0134 9.78361 11.4604 9.54018 12.0867C9.35645 12.5595 9.1379 13.27 9.0782 14.5781C9.01366 15.993 9 16.4173 9 20C9 23.5827 9.01366 24.007 9.0782 25.4219C9.1379 26.73 9.35645 27.4405 9.54018 27.9133C9.78361 28.5396 10.0744 28.9866 10.5439 29.4561C11.0134 29.9256 11.4604 30.2164 12.0867 30.4598C12.5595 30.6435 13.2699 30.8621 14.5781 30.9218C15.9928 30.9863 16.4171 31 20 31C23.5829 31 24.0072 30.9863 25.4218 30.9218C26.73 30.8621 27.4405 30.6435 27.9133 30.4598C28.5396 30.2164 28.9866 29.9256 29.4561 29.456C29.9256 28.9866 30.2164 28.5396 30.4598 27.9133C30.6435 27.4405 30.8621 26.73 30.9218 25.4219C30.9863 24.007 31 23.5827 31 20C31 16.4173 30.9863 15.993 30.9218 14.5781C30.8621 13.27 30.6435 12.5595 30.4598 12.0867C30.2164 11.4604 29.9256 11.0134 29.456 10.5439" fill="white"/>
<defs>
<radialGradient id="paint0_radial" cx="0" cy="0" r="1" gradientUnits="userSpaceOnUse" gradientTransform="translate(10.6251 43.0808) rotate(-90) scale(39.643 36.8711)">
<stop stop-color="#FFDD55"/>
<stop offset="0.1" stop-color="#FFDD55"/>
<stop offset="0.5" stop-color="#FF543E"/>
<stop offset="1" stop-color="#C837AB"/>
</radialGradient>
<radialGradient id="paint1_radial" cx="0" cy="0" r="1" gradientUnits="userSpaceOnUse" gradientTransform="translate(-6.70021 2.88153) rotate(78.6806) scale(17.7206 73.0449)">
<stop stop-color="#3771C8"/>
<stop offset="0.128" stop-color="#3771C8"/>
<stop offset="1" stop-color="#6600FF" stop-opacity="0"/>
</radialGradient>
</defs>
</svg>
