<svg width="455" height="455" viewBox="0 0 455 455" fill="none" xmlns="http://www.w3.org/2000/svg">
<g clip-path="url(#clip0)">
<path d="M456 0H1V455H456V0Z" fill="#5FB4ED"/>
<path d="M359.268 100.439L55.0042 219.007C45.1491 222.848 45.7461 236.99 55.8908 239.985L133.208 262.817L162.062 354.376C165.076 363.939 177.196 366.839 184.212 359.675L224.186 318.859L302.62 376.431C312.219 383.477 325.889 378.242 328.326 366.588L380.274 118.227C382.818 106.062 370.849 95.9259 359.268 100.439ZM321.122 155.556L179.793 280.533C178.384 281.779 177.487 283.504 177.278 285.373L171.837 333.743C171.659 335.32 169.451 335.529 168.98 334.013L146.593 261.876C145.568 258.574 146.905 254.995 149.843 253.173L316.738 149.664C320.576 147.281 324.505 152.565 321.122 155.556Z" fill="white"/>
</g>
<defs>
<clipPath id="clip0">
<rect width="455" height="455" fill="white"/>
</clipPath>
</defs>
</svg>
