<svg width="455" height="455" viewBox="0 0 455 455" fill="none" xmlns="http://www.w3.org/2000/svg">
<rect x="24" y="91" width="405" height="273" fill="white"/>
<path fill-rule="evenodd" clip-rule="evenodd" d="M0 0V455H455V0H0ZM341.098 251.727C351.543 261.917 362.588 271.511 371.963 282.776C376.105 287.754 380.023 292.889 383.009 298.657C387.248 306.921 383.406 315.975 376.024 316.474L330.149 316.454C318.308 317.427 308.872 312.653 300.914 304.552C294.586 298.102 288.671 291.198 282.562 284.529C280.076 281.783 277.447 279.215 274.323 277.167C268.056 273.106 262.62 274.339 259.038 280.866C255.395 287.515 254.539 294.897 254.203 302.301C253.704 313.108 250.443 315.935 239.596 316.455C216.388 317.53 194.378 314.004 173.937 302.321C155.885 292.014 141.915 277.442 129.753 260.965C106.051 228.841 87.898 193.574 71.599 157.292C67.915 149.115 70.606 144.733 79.598 144.575C94.588 144.279 109.572 144.315 124.541 144.555C130.63 144.657 134.67 148.137 136.999 153.889C145.1 173.795 155.009 192.739 167.447 210.316C170.774 214.993 174.157 219.65 178.951 222.952C184.265 226.615 188.326 225.418 190.832 219.467C192.427 215.687 193.125 211.667 193.461 207.626C194.653 193.793 194.796 179.945 192.743 166.153C191.469 157.532 186.594 151.958 177.998 150.328C173.616 149.492 174.273 147.882 176.383 145.37C180.087 141.055 183.572 138.364 190.476 138.364H242.323C250.5 139.959 252.334 143.642 253.445 151.861L253.486 209.48C253.389 212.664 255.081 222.095 260.792 224.184C265.367 225.697 268.414 222.013 271.16 219.109C283.577 205.933 292.437 190.353 300.354 174.232C303.859 167.145 306.886 159.783 309.831 152.415C312.001 146.963 315.384 144.278 321.534 144.375L371.45 144.436C372.922 144.436 374.436 144.436 375.888 144.675C384.284 146.127 386.593 149.75 383.984 157.968C379.908 170.843 371.924 181.593 364.144 192.359C355.803 203.884 346.928 215.006 338.649 226.592C331.087 237.201 331.683 242.535 341.098 251.727Z" fill="#2787F4"/>
</svg>
