<svg width="24" height="24" viewBox="0 0 24 24" fill="none" xmlns="http://www.w3.org/2000/svg">
<path d="M16.2041 17.0004C16.0004 16.6487 15.666 16.3919 15.2737 16.2858C15.0798 16.2304 14.8767 16.2144 14.6765 16.2388C14.4763 16.2632 14.283 16.3275 14.1081 16.428L12.8162 17.1738C12.8136 17.1753 12.8111 17.1768 12.8085 17.1785C12.8039 17.1814 12.3042 17.4684 11.4826 17.2603C10.5835 17.0324 9.17306 16.1741 7.5592 13.379C6.04626 10.7587 5.97604 9.1607 6.18356 8.28161C6.39707 7.37692 6.92995 7.05015 6.95915 7.0329L6.96065 7.03201L8.25248 6.28591C8.42684 6.18474 8.57916 6.04965 8.70044 5.88863C8.82172 5.72761 8.9095 5.54392 8.9586 5.3484C9.06313 4.9559 9.0081 4.53797 8.80551 4.1859L7.34366 1.65348C7.13919 1.30393 6.8052 1.04902 6.41409 0.944013C6.02297 0.839004 5.60622 0.892347 5.25416 1.09248L2.98045 2.40498C2.67299 2.58278 2.36127 3.01965 2.12526 3.60409C1.92838 4.09159 1.6888 4.92325 1.66546 6.11659C1.60148 9.38992 3.17727 12.8297 4.51049 15.1388C5.84418 17.4488 8.04018 20.5427 10.9289 22.1641C11.9836 22.7559 12.8291 22.977 13.3529 23.0583C13.5579 23.0911 13.7651 23.1082 13.9727 23.1093C14.3328 23.1093 14.6323 23.0499 14.8328 22.9341L17.1065 21.6216C17.4573 21.4185 17.7132 21.0845 17.8181 20.6928C17.923 20.3012 17.8683 19.884 17.666 19.5327L16.2041 17.0004ZM16.7783 21.0529L14.5049 22.3654C14.2581 22.508 13.028 22.5894 11.2504 21.5916C8.49159 20.0431 6.37166 17.0494 5.07909 14.8105C3.7873 12.5737 2.26054 9.25173 2.32162 6.12967C2.35991 4.17245 3.01537 3.1427 3.30857 2.97348L5.58229 1.66098C5.7123 1.5859 5.85984 1.54649 6.00998 1.54675C6.08892 1.54684 6.1675 1.55734 6.2437 1.57797C6.35459 1.60683 6.45866 1.65738 6.5499 1.7267C6.64115 1.79601 6.71776 1.88271 6.77531 1.9818L8.23715 4.5138C8.35323 4.7168 8.38427 4.9575 8.32349 5.18331C8.29603 5.29453 8.24656 5.39911 8.17801 5.49089C8.10945 5.58268 8.0232 5.65979 7.92435 5.71769L6.63248 6.46356C6.56718 6.5013 5.87488 6.92317 5.57671 8.00575C5.17438 9.46665 5.65012 11.3848 6.99079 13.7069C8.37829 16.1103 9.83545 17.5198 11.3215 17.8964C12.3762 18.1636 13.0641 17.7893 13.1449 17.7417L14.4361 16.9964C14.5357 16.9398 14.6457 16.9037 14.7594 16.8903C14.8732 16.8769 14.9885 16.8865 15.0986 16.9184C15.3247 16.9789 15.5178 17.1263 15.6357 17.3286L17.0976 19.8605C17.2103 20.0617 17.24 20.2989 17.1803 20.5216C17.1207 20.7443 16.9765 20.935 16.7783 21.0529Z" fill="#0F0F0F"/>
<path d="M19.402 16.2984C18.9969 15.5966 18.2413 15.1875 17.4301 15.1406H17.4273C17.3398 15.1427 17.2566 15.1788 17.1953 15.2413C17.134 15.3038 17.0995 15.3877 17.0991 15.4752C17.0982 15.5627 17.1319 15.647 17.1929 15.7098C17.2538 15.7726 17.3371 15.8088 17.4245 15.8106C17.7107 15.8133 17.9912 15.8906 18.2383 16.035C18.4855 16.1793 18.6906 16.3856 18.8336 16.6336C18.9765 16.8815 19.0523 17.1624 19.0534 17.4486C19.0545 17.7348 18.9808 18.0163 18.8398 18.2653C18.8116 18.3153 18.7969 18.3718 18.7973 18.4291C18.7976 18.4865 18.813 18.5428 18.8418 18.5924C18.8707 18.642 18.912 18.6832 18.9617 18.7119C19.0114 18.7406 19.0677 18.7559 19.1251 18.756C19.1836 18.7552 19.2408 18.739 19.2911 18.709C19.3413 18.679 19.3827 18.6362 19.4111 18.5851C19.6075 18.2357 19.71 17.8414 19.7084 17.4406C19.7068 17.0398 19.6012 16.6462 19.402 16.2984Z" fill="#0F0F0F"/>
<path d="M20.539 15.6512C20.1576 14.9864 19.574 14.4607 18.8731 14.1507C18.1721 13.8407 17.3906 13.7626 16.6422 13.9278C16.6001 13.937 16.5602 13.9544 16.5248 13.979C16.4894 14.0036 16.4592 14.035 16.436 14.0712C16.4127 14.1075 16.3968 14.148 16.3892 14.1904C16.3816 14.2328 16.3824 14.2763 16.3916 14.3184C16.4008 14.3605 16.4182 14.4004 16.4428 14.4358C16.4674 14.4712 16.4987 14.5013 16.535 14.5246C16.5713 14.5479 16.6118 14.5638 16.6542 14.5714C16.6966 14.579 16.7401 14.5782 16.7822 14.569C17.3945 14.4357 18.0333 14.5005 18.6065 14.754C19.1796 15.0075 19.6573 15.4366 19.9706 15.9793C20.2839 16.522 20.4167 17.1502 20.3497 17.7733C20.2826 18.3964 20.0193 18.982 19.5977 19.4457C19.5684 19.4775 19.5457 19.5148 19.5308 19.5554C19.5159 19.596 19.5093 19.6392 19.5112 19.6824C19.513 19.7256 19.5235 19.7681 19.5418 19.8072C19.5602 19.8464 19.5861 19.8816 19.618 19.9107C19.65 19.9398 19.6875 19.9623 19.7282 19.9769C19.7689 19.9916 19.8121 19.998 19.8553 19.9958C19.8985 19.9937 19.9409 19.983 19.9799 19.9644C20.019 19.9458 20.054 19.9197 20.0829 19.8875C20.6002 19.322 20.9234 18.6061 21.0054 17.8441C21.0875 17.0821 20.924 16.3138 20.539 15.6512Z" fill="#0F0F0F"/>
<path d="M21.6761 14.9945C21.116 14.0244 20.2418 13.2742 19.1979 12.8677C18.154 12.4612 17.0027 12.4227 15.9339 12.7586C15.851 12.7848 15.7818 12.8429 15.7416 12.9201C15.7015 12.9973 15.6936 13.0873 15.7198 13.1703C15.746 13.2533 15.8041 13.3224 15.8813 13.3626C15.9585 13.4028 16.0485 13.4106 16.1315 13.3844C17.0578 13.0932 18.0557 13.1266 18.9605 13.4789C19.8653 13.8312 20.6229 14.4815 21.1084 15.3224C21.5938 16.1633 21.7781 17.1446 21.6308 18.1043C21.4835 19.064 21.0134 19.9448 20.298 20.6014C20.2658 20.6304 20.2396 20.6655 20.221 20.7046C20.2024 20.7438 20.1917 20.7862 20.1896 20.8295C20.1875 20.8728 20.194 20.9161 20.2087 20.9569C20.2234 20.9977 20.2461 21.0351 20.2754 21.0671C20.3046 21.0991 20.34 21.1249 20.3793 21.1432C20.4186 21.1614 20.4612 21.1717 20.5045 21.1734C20.5478 21.1751 20.591 21.1682 20.6317 21.1531C20.6723 21.1379 20.7096 21.1149 20.7413 21.0853C21.5665 20.3278 22.1089 19.3115 22.2788 18.2043C22.4488 17.097 22.2362 15.9648 21.6761 14.9947V14.9945Z" fill="#0F0F0F"/>
</svg>
