<?xml version="1.0" encoding="utf-8"?>
<svg id="Layer_1" style="enable-background:new 0 0 512 512;" version="1.1" viewBox="0 0 512 512" xmlns="http://www.w3.org/2000/svg">
  <g>
    <polygon points="151.4,445.4 151.4,356.1 61.5,356.1  " style="fill: rgb(255, 210, 0);"/>
    <rect height="8.2" width="64" x="364.8" y="359.8" style="fill: rgb(255, 210, 0);"/>
    <path d="M428.8,339.1c0-3.3-2.7-6-6-6h-52.1c-3.3,0-6,2.7-6,6v12.5h64V339.1z" style="fill: rgb(255, 210, 0);"/>
    <path d="M456.3,427.8c-1-2-3.1-3.3-5.4-3.3h-22.2v-48.2h-64v48.2h-22.2c-2.3,0-4.4,1.3-5.4,3.3c-1,2-0.7,4.5,0.7,6.3l54.2,69.7   c1.1,1.5,2.9,2.3,4.7,2.3c1.8,0,3.6-0.8,4.7-2.3l54.2-69.7C457.1,432.2,457.3,429.8,456.3,427.8z" style="fill: rgb(255, 210, 0);"/>
    <path d="M325.7,422.1c3.1-6.4,9.8-10.5,16.9-10.5h9.4v-72.5c0-10.4,8.4-18.8,18.8-18.8h26V182.1H173.4c-5.1,0-9.8-2.9-11.9-7.5   c-2.5-5.4-0.9-11.7,3.6-15.4l63.6-51l-63.6-51c-4.6-3.7-6.1-10-3.6-15.4c2.1-4.6,6.8-7.5,11.9-7.5h223.4V6H55.1v337.2h102.1   c3.9,0,7.1,3.2,7.1,7.1v101.4h171.1l-7.6-9.8C323.3,436.3,322.5,428.5,325.7,422.1z" style="fill: rgb(15, 15, 15);"/>
    <path d="M330.5,88.1h-9v40.3h9c4.4,0,7.9-1.5,10.5-4.5c2.6-3,3.9-6.8,3.9-11.5V104c0-4.6-1.3-8.4-3.9-11.4   C338.4,89.6,334.9,88.1,330.5,88.1z" style="fill: rgb(255, 210, 0);"/>
    <path d="M281.8,88.1h-11.9v19.4h11.9c3.4,0,6-0.9,7.7-2.7c1.7-1.8,2.6-4.1,2.6-6.9s-0.9-5.1-2.6-7C287.8,89,285.2,88.1,281.8,88.1z   " style="fill: rgb(255, 210, 0);"/>
    <path d="M429.3,47.2H173.2l76.1,61l-76.1,61h256.1V47.2z M296.1,110.2c-3.4,3.1-8.2,4.7-14.3,4.7h-11.9v20.9h-9.2v-55h21.1   c6.1,0,10.8,1.6,14.3,4.7s5.2,7.3,5.2,12.4C301.3,103,299.5,107.1,296.1,110.2z M354.1,112.4c0,6.9-2.2,12.5-6.6,16.8   c-4.4,4.3-10,6.5-17,6.5h-18.2v-55h18.2c7,0,12.6,2.2,17,6.5c4.4,4.4,6.6,10,6.6,16.8V112.4z M401.7,88.1h-26v16.8h22.2v7.4h-22.2   v23.5h-9.2v-55h35.2V88.1z" style="fill: rgb(255, 210, 0);"/>
  </g>
</svg>