<?xml version="1.0" encoding="UTF-8"?>
<!-- Generator: Adobe Illustrator 24.0.0, SVG Export Plug-In . SVG Version: 6.00 Build 0) -->
<svg xmlns="http://www.w3.org/2000/svg" xmlns:xlink="http://www.w3.org/1999/xlink" version="1.1" id="Layer_1" x="0px" y="0px" viewBox="0 0 60 60" style="enable-background:new 0 0 60 60;" xml:space="preserve"> <style type="text/css"> .st0{fill:#FFC000;} .st1{fill:none;stroke:#1D1D1D;stroke-width:1.25;stroke-linejoin:round;stroke-miterlimit:10;} .st2{fill:#1D1D1D;} </style> <g> <path class="st0" d="M37.554,17.215H22.968c-0.206,0-0.374,0.169-0.374,0.375v11.288c0,0.21,0.168,0.376,0.374,0.376h12.988 c1.507,0,1.974-0.537,1.974-1.639V17.59C37.93,17.384,37.762,17.215,37.554,17.215z M29.969,23.283 c-1.046,0-1.895-0.854-1.895-1.899c0-1.043,0.849-1.893,1.895-1.893c1.05,0,1.897,0.849,1.897,1.893 C31.866,22.429,31.019,23.283,29.969,23.283z"/> </g> <g> <polygon class="st0" points="54.105,38.687 7.654,38.687 4.2,50.808 5.581,53.387 56.177,53.387 57.559,50.808 "/> </g> <g> <path class="st1" d="M20.011,11.394"/> </g> <g> <path class="st2" d="M24.197,11.347c0-2.889,2.349-5.239,5.237-5.239c2.885,0,5.231,2.35,5.231,5.239v2.588h1.25v-2.588 c0-3.578-2.907-6.489-6.481-6.489c-3.577,0-6.487,2.911-6.487,6.489v2.588h1.25V11.347z"/> <path class="st2" d="M20.151,16.612v3.687h1.25v-3.687c0-0.349,0.285-0.633,0.635-0.633h14.792c0.352,0,0.638,0.284,0.638,0.633 v11.071c0,0.358-0.28,0.639-0.638,0.639H22.036c-0.35,0-0.635-0.287-0.635-0.639V23.88h-1.25v3.803 c0,1.042,0.846,1.889,1.885,1.889h14.792c1.041,0,1.888-0.848,1.888-1.889V16.612c0-1.039-0.847-1.883-1.888-1.883H22.036 C20.997,14.729,20.151,15.573,20.151,16.612z"/> <rect x="20.151" y="21.208" class="st2" width="1.25" height="1.61"/> <path class="st2" d="M30.058,26.271V23.85c1.204-0.285,2.105-1.364,2.105-2.656c0-1.503-1.225-2.727-2.73-2.727 s-2.73,1.223-2.73,2.727c0,1.292,0.901,2.371,2.105,2.656v2.421H30.058z M27.952,21.194c0-0.814,0.664-1.477,1.48-1.477 s1.48,0.663,1.48,1.477c0,0.819-0.664,1.485-1.48,1.485S27.952,22.013,27.952,21.194z"/> <path class="st2" d="M33.813,13.936v-2.574c0-2.465-1.965-4.47-4.38-4.47c-2.417,0-4.383,2.005-4.383,4.47v2.574h1.25v-2.574 c0-1.775,1.405-3.22,3.133-3.22c1.726,0,3.13,1.445,3.13,3.22v2.574H33.813z"/> <path class="st2" d="M57.754,49.974l-3.919-13.527c-0.038-0.129-0.115-0.236-0.215-0.315v-23.58c0-2.025-1.646-3.672-3.671-3.672 H38.091v1.25h11.858c1.335,0,2.421,1.087,2.421,2.422v23.444H7.28V12.551c0-1.335,1.086-2.422,2.421-2.422h11.034v-1.25H9.701 c-2.024,0-3.671,1.647-3.671,3.672v23.582c-0.099,0.079-0.176,0.186-0.213,0.314l-3.92,13.527 c-0.008,0.029-0.003,0.058-0.007,0.087c-0.005,0.033-0.009,0.063-0.008,0.096c0.001,0.075,0.016,0.146,0.043,0.214 c0.006,0.016,0.002,0.033,0.01,0.049l1.567,3.239c0.104,0.216,0.323,0.353,0.562,0.353h34.54v-1.25H4.457l-0.963-1.989h50.818 v-1.25H3.329l3.558-12.277h45.877l3.721,12.846l-1.292,2.67h-9.633v1.25h10.024c0.239,0,0.458-0.137,0.562-0.353l1.567-3.239 l-0.005-0.002C57.776,50.283,57.798,50.128,57.754,49.974z"/> <rect x="40.344" y="52.762" class="st2" width="3.479" height="1.25"/> <rect x="10.013" y="39.087" class="st2" width="4.617" height="1.25"/> <rect x="16.939" y="39.087" class="st2" width="4.618" height="1.25"/> <rect x="23.866" y="39.087" class="st2" width="4.617" height="1.25"/> <rect x="30.792" y="39.087" class="st2" width="4.617" height="1.25"/> <rect x="37.719" y="39.087" class="st2" width="4.617" height="1.25"/> <rect x="44.645" y="39.087" class="st2" width="4.617" height="1.25"/> <rect x="13.809" y="42.259" class="st2" width="4.618" height="1.25"/> <rect x="20.735" y="42.259" class="st2" width="4.618" height="1.25"/> <rect x="27.661" y="42.259" class="st2" width="4.618" height="1.25"/> <rect x="34.588" y="42.259" class="st2" width="4.618" height="1.25"/> <rect x="41.514" y="42.259" class="st2" width="4.618" height="1.25"/> <path class="st2" d="M12.356,12.017h-1.923c-0.662,0-1.2,0.539-1.2,1.201V16h1.25l-0.05-2.733h1.923V12.017z"/> <rect x="9.232" y="16.833" class="st2" width="1.25" height="2.222"/> </g> </svg>