<svg width="106" height="106" viewBox="0 0 106 106" fill="none" xmlns="http://www.w3.org/2000/svg">
<path d="M105.837 6.68604H0.164062V99.313H105.837V6.68604Z" fill="white"/>
<path d="M106 6.68604H0V99.313H106V6.68604ZM86.324 27.75C89.572 30.889 91.241 35.02 91.241 40.059H80.742C80.742 35.846 77.911 32.624 74.25 32.624C70.672 32.624 67.751 35.103 67.751 38.325C67.751 41.711 71.583 44.52 76.248 46.917C83.076 50.056 92.074 55.259 91.988 66.248C91.988 70.71 90.322 74.509 86.99 77.732C83.661 80.871 79.581 82.441 74.831 82.441H73.503C68.752 82.441 64.671 80.871 61.255 77.732C57.926 74.508 56.259 70.71 56.259 66.248V63.604H66.838V66.248C66.838 69.8 69.922 72.774 73.666 72.774H74.583C78.25 72.774 81.328 69.881 81.328 66.825C81.328 62.529 77.5 59.39 72.753 57.078L72.651 57.029C66 53.813 57.095 49.508 57.18 39.069C57.18 34.526 58.841 30.642 62.085 27.585C65.422 24.529 69.503 22.959 74.25 22.959C79.081 22.959 83.076 24.529 86.324 27.75ZM47.129 81.613H15.141V23.784H46.46V33.451H25.639V46.587H44.628V56.253H25.639V71.95H47.129V81.613Z" fill="#FED204"/>
<path d="M106 0H0V7.813H106V0Z" fill="#FED204"/>
<path d="M106 96.647H0.164062V106H106V96.647Z" fill="#FED204"/>
<style xmlns="" type="text/css" id="igtranslator-color"/></svg>