<?xml version="1.0" encoding="utf-8"?>
<svg viewBox="0 0 512 512" xmlns="http://www.w3.org/2000/svg">
  <title/>
  <g id="Solid">
    <path d="M187.271,190.33105l.72363,5.0625A24.11759,24.11759,0,0,0,211.75342,216h7.37744a24.01,24.01,0,0,0,21.96289-14.32324l3.74463-8.49854-47.73584-11.74707a8.21121,8.21121,0,0,0-1.9585-.24023,8.01568,8.01568,0,0,0-7.873,9.14013Z"/>
    <path d="M281.54053,144l26.80261,10.72107-2.57166-15.43a8.03663,8.03663,0,0,0-5.69336-6.377l-41.88037-11.96582a7.99558,7.99558,0,0,0-4.3955,0l-41.88037,11.96582a8.03663,8.03663,0,0,0-5.69336,6.377l-2.57166,15.43L230.45947,144Z"/>
    <path d="M270.90625,201.67676A24.01,24.01,0,0,0,292.86914,216h7.37744a24.1176,24.1176,0,0,0,23.75879-20.606l.72363-5.06347a8.001,8.001,0,0,0-9.83154-8.89942l-47.73584,11.74707Z"/>
    <polygon points="300.006 168.619 278.459 160 233.541 160 211.994 168.619 251.388 178.313 260.612 178.313 300.006 168.619"/>
    <path d="M292.86914,232a40.01545,40.01545,0,0,1-36.60449-23.87207L256,207.52734l-.26465.60059A40.01545,40.01545,0,0,1,219.13086,232h-7.37744a39.49623,39.49623,0,0,1-7.04346-.63647l8.66406,30.324a7.99667,7.99667,0,0,0,5.1626,5.39209l34.93359,11.64453a8.04764,8.04764,0,0,0,5.05958,0l34.93408-11.64453a7.99726,7.99726,0,0,0,5.16211-5.3916l8.66412-30.32446A39.49691,39.49691,0,0,1,300.24658,232Z"/>
    <path d="M104,336H408V64H104Zm136-16H208V304h32Zm64,0H272V304h32Zm48,0H320V304h32Zm0-32H328V272h24Zm0-32H336V240h16Zm0-96H336V144h16Zm0-32H336V112h16Zm16-48h24V96H368Zm0,32h24v16H368Zm0,32h24v16H368Zm0,32h24v16H368Zm0,32h24v16H368Zm0,32h24v16H368Zm0,32h24v16H368Zm0,32h24v16H368ZM320,80h32V96H320Zm-40,0h24V96H280Zm-32,0h16V96H248Zm-40,0h24V96H208Zm-.47363,37.5293,41.88037-11.96582a23.98643,23.98643,0,0,1,13.18652,0l41.88037,11.96582a24.10983,24.10983,0,0,1,17.08008,19.13086l5.10944,30.65655a23.998,23.998,0,0,1,13.90472,25.277l-.72363,5.06348a39.91233,39.91233,0,0,1-13.2367,24.33734L314.01074,266.083a23.98916,23.98916,0,0,1-15.48681,16.17529l-34.93457,11.64453a24.14768,24.14768,0,0,1-15.17872,0L213.47656,282.2583a23.98857,23.98857,0,0,1-15.4873-16.17578l-12.59686-44.088a39.91254,39.91254,0,0,1-13.23664-24.33777l-.72363-5.0625A24.0005,24.0005,0,0,1,185.337,167.3161l5.10931-30.65594A24.10983,24.10983,0,0,1,207.52637,117.5293ZM160,80h32V96H160Zm0,32h16v16H160Zm0,32h16v16H160Zm0,96h16v16H160Zm0,32h24v16H160Zm0,32h32v16H160ZM120,80h24V96H120Zm0,32h24v16H120Zm0,32h24v16H120Zm0,32h24v16H120Zm0,32h24v16H120Zm0,32h24v16H120Zm0,32h24v16H120Zm0,32h24v16H120Z" style="fill: rgb(255, 210, 0);"/>
    <path d="M80,368H432a8.00917,8.00917,0,0,0,8-8V40a8.00917,8.00917,0,0,0-8-8H80a8.00917,8.00917,0,0,0-8,8V360A8.00917,8.00917,0,0,0,80,368ZM88,48H424V352H88Z"/>
    <path d="M217.65674,446.34326a5.62035,5.62035,0,0,0,4,1.65674h68.68652a5.62035,5.62035,0,0,0,4-1.65674A21.51508,21.51508,0,0,1,309.65674,440H473.05206l-37.50891-56.26343A24.09022,24.09022,0,0,1,432,384H80a24.09022,24.09022,0,0,1-3.54315-.26343L38.94775,440H202.34326A21.51508,21.51508,0,0,1,217.65674,446.34326Z"/>
    <path d="M309.65674,456a5.62035,5.62035,0,0,0-4,1.65674A21.51508,21.51508,0,0,1,290.34326,464H221.65674a21.51508,21.51508,0,0,1-15.31348-6.34326,5.62035,5.62035,0,0,0-4-1.65674H32v16a8.00917,8.00917,0,0,0,8,8H472a8.00917,8.00917,0,0,0,8-8V456Z"/>
  </g>
</svg>