<svg width="24" height="24" viewBox="0 0 24 24" fill="none" xmlns="http://www.w3.org/2000/svg">
<g clip-path="url(#clip0)">
<path d="M23.8576 8.71111L22.497 7.7016V1.85498C22.497 1.66045 22.3394 1.50271 22.1448 1.50271H14.1331C14.1195 1.48856 12.2099 0.0691367 12.2099 0.0691367C12.0853 -0.0233477 11.9148 -0.0233945 11.7901 0.0691367L9.85791 1.50271H1.85517C1.66064 1.50271 1.50291 1.66045 1.50291 1.85498V7.70156L0.142359 8.71106C0.0536719 8.77439 0 8.88581 0 8.99395V23.6476C0 23.8421 0.157734 23.9998 0.352266 23.9998H23.6478C23.8245 23.9998 23.9781 23.8622 23.9977 23.6868C23.9992 23.6739 24 23.6609 24 23.6476V8.994C24 8.88136 23.9443 8.78039 23.8576 8.71111ZM22.497 8.57887L23.0243 8.97L22.497 9.30164V8.57887ZM12 0.790684L12.9598 1.50276H11.0403L12 0.790684ZM2.20744 2.20725H21.7926V9.74475L20.5596 10.5203H17.1429C16.9483 10.5203 16.7906 10.6781 16.7906 10.8726C16.7906 11.0671 16.9483 11.2249 17.1429 11.2249H19.4396L12 15.9046L4.56042 11.2249H15.4521C15.6466 11.2249 15.8043 11.0671 15.8043 10.8726C15.8043 10.6781 15.6466 10.5203 15.4521 10.5203H3.44044L2.20744 9.74475V2.20725ZM1.50295 8.57887V9.30164L0.97575 8.97L1.50295 8.57887ZM0.704484 23.2953V9.63164L22.4262 23.2953H0.704484V23.2953ZM23.2955 23.0099L12.6616 16.3207L23.2955 9.63164V23.0099Z" fill="#0F0F0F"/>
<path d="M19.5146 4.13306H16.5088C16.3142 4.13306 16.1565 4.29079 16.1565 4.48532V8.24268C16.1565 8.43721 16.3142 8.59495 16.5088 8.59495H19.5146C19.7092 8.59495 19.8669 8.43721 19.8669 8.24268V4.48532C19.8669 4.29079 19.7092 4.13306 19.5146 4.13306ZM19.1624 7.89042H16.861V4.83759H19.1624V7.89042Z" fill="#0F0F0F"/>
<path d="M15.0059 5.13306H4.48532C4.29079 5.13306 4.13306 5.29079 4.13306 5.48532C4.13306 5.67985 4.29079 5.83759 4.48532 5.83759H15.0059C15.2004 5.83759 15.3581 5.67985 15.3581 5.48532C15.3581 5.29079 15.2004 5.13306 15.0059 5.13306Z" fill="#0F0F0F"/>
<path d="M12.0235 7.89038H4.48532C4.29079 7.89038 4.13306 8.04812 4.13306 8.24265C4.13306 8.43718 4.29079 8.59492 4.48532 8.59492H12.0235C12.2181 8.59492 12.3757 8.43718 12.3757 8.24265C12.3757 8.04812 12.2181 7.89038 12.0235 7.89038Z" fill="#0F0F0F"/>
<path d="M15.0059 7.89038H13.5029C13.3083 7.89038 13.1506 8.04812 13.1506 8.24265C13.1506 8.43718 13.3083 8.59492 13.5029 8.59492H15.0059C15.2004 8.59492 15.3581 8.43718 15.3581 8.24265C15.3581 8.04812 15.2004 7.89038 15.0059 7.89038Z" fill="#0F0F0F"/>
<path d="M15.7573 13.0234H13.8786C13.6841 13.0234 13.5264 13.1812 13.5264 13.3757C13.5264 13.5702 13.6841 13.728 13.8786 13.728H15.7573C15.9519 13.728 16.1096 13.5702 16.1096 13.3757C16.1095 13.1812 15.9519 13.0234 15.7573 13.0234Z" fill="#0F0F0F"/>
<path d="M12.3757 13.0234H8.24265C8.04812 13.0234 7.89038 13.1812 7.89038 13.3757C7.89038 13.5702 8.04812 13.728 8.24265 13.728H12.3757C12.5703 13.728 12.728 13.5702 12.728 13.3757C12.7279 13.1812 12.5703 13.0234 12.3757 13.0234Z" fill="#0F0F0F"/>
</g>
<defs>
<clipPath id="clip0">
<rect width="24" height="24" fill="white"/>
</clipPath>
</defs>
</svg>
