<svg width="455" height="456" viewBox="0 0 455 456" fill="none" xmlns="http://www.w3.org/2000/svg">
<rect y="0.255249" width="455" height="455" fill="#F7931E"/>
<path d="M227.266 67.7408C182.172 67.7408 145.617 104.344 145.617 149.494C145.617 194.646 182.172 231.251 227.266 231.251C272.36 231.251 308.915 194.646 308.915 149.494C308.915 104.344 272.36 67.7408 227.266 67.7408ZM227.266 183.291C208.626 183.291 193.514 168.159 193.514 149.495C193.514 130.831 208.626 115.7 227.266 115.7C245.907 115.7 261.018 130.831 261.018 149.495C261.018 168.159 245.907 183.291 227.266 183.291Z" fill="white"/>
<path d="M256.092 296.302C288.779 289.634 308.367 274.135 309.404 273.303C318.969 265.622 320.505 251.632 312.834 242.054C305.165 232.477 291.193 230.938 281.626 238.618C281.424 238.782 260.532 254.828 226.157 254.852C191.784 254.828 170.45 238.782 170.248 238.618C160.681 230.938 146.71 232.477 139.04 242.054C131.369 251.632 132.905 265.622 142.47 273.303C143.521 274.147 163.917 290.05 197.521 296.56L150.688 345.567C142.177 354.405 142.433 368.477 151.26 376.998C155.568 381.158 161.12 383.225 166.668 383.225C172.484 383.225 178.295 380.949 182.651 376.425L226.159 330.019L274.06 376.726C282.74 385.402 296.794 385.388 305.457 376.701C314.12 368.013 314.109 353.939 305.432 345.265L256.092 296.302Z" fill="white"/>
<path d="M226.158 254.851C226.1 254.851 226.214 254.852 226.158 254.853C226.102 254.852 226.216 254.851 226.158 254.851Z" fill="white"/>
</svg>
