<svg width="40" height="40" viewBox="0 0 40 40" fill="none" xmlns="http://www.w3.org/2000/svg">
<rect width="40" height="40" fill="#CC181E"/>
<path fill-rule="evenodd" clip-rule="evenodd" d="M17.5219 23.0981L17.5212 16.3869L24.0057 19.7541L17.5219 23.0981ZM31.76 15.2239C31.76 15.2239 31.5252 13.5781 30.806 12.8533C29.8932 11.9016 28.8703 11.8971 28.4015 11.8419C25.043 11.6 20.0053 11.6 20.0053 11.6H19.9947C19.9947 11.6 14.957 11.6 11.5985 11.8419C11.129 11.8971 10.1068 11.9016 9.19325 12.8533C8.474 13.5781 8.24 15.2239 8.24 15.2239C8.24 15.2239 8 17.1572 8 19.0897V20.9021C8 22.8353 8.24 24.7679 8.24 24.7679C8.24 24.7679 8.474 26.4137 9.19325 27.1385C10.1068 28.0902 11.306 28.0604 11.84 28.1597C13.76 28.3433 20 28.4 20 28.4C20 28.4 25.043 28.3925 28.4015 28.1507C28.8703 28.0947 29.8932 28.0902 30.806 27.1385C31.5252 26.4137 31.76 24.7679 31.76 24.7679C31.76 24.7679 32 22.8353 32 20.9021V19.0897C32 17.1572 31.76 15.2239 31.76 15.2239V15.2239Z" fill="white"/>
</svg>
