<?xml version="1.0" encoding="UTF-8"?>
<svg xmlns="http://www.w3.org/2000/svg" width="380" height="100" viewBox="0 0 380 100" fill="none"> <g clip-path="url(#clip0)"> <rect width="380" height="100" fill="white"/> <rect width="380" height="100" fill="#FFD200"/> <path d="M68.0656 38.2547C68.0904 37.933 68.1031 37.6081 68.1034 37.28C68.1032 34.762 67.3424 32.305 65.9241 30.2417C64.5058 28.1785 62.4985 26.6087 60.1741 25.745C57.8497 24.8814 55.3207 24.7656 52.9295 25.4134C50.5383 26.0612 48.4006 27.4412 46.8059 29.3666C45.3843 28.3571 43.718 27.7635 41.988 27.6503C40.2581 27.537 38.5308 27.9085 36.9938 28.7243C35.4568 29.5401 34.169 30.769 33.2703 32.2774C32.3716 33.7858 31.8965 35.516 31.8965 37.28C31.8965 37.6084 31.9125 37.9327 31.9443 38.2529C30.0108 38.556 28.2477 39.5532 26.9741 41.0642C25.7004 42.5751 25.0001 44.5 25 46.4907C25 48.7008 25.8628 50.8205 27.3987 52.3833C28.9345 53.9462 31.0176 54.8242 33.1896 54.8242H66.8103C68.9823 54.8242 71.0654 53.9462 72.6013 52.3833C74.1371 50.8205 75 48.7008 75 46.4907C74.9998 44.5018 74.3008 42.5785 73.0291 41.0681C71.7575 39.5578 69.997 38.5599 68.0656 38.2547V38.2547Z" fill="white"/> <path d="M54.482 29.5429L54.1392 27.8236C54.7631 27.6951 55.3981 27.6305 56.0347 27.6306V29.385C55.5133 29.3849 54.9931 29.4378 54.482 29.5429V29.5429Z" fill="#F3F3F9"/> <path d="M49.0517 33.8349L47.5 33.0683C48.4885 30.9989 50.1696 29.3558 52.2414 28.4338L52.931 30.0414C51.2358 30.7964 49.8604 32.1413 49.0517 33.8349V33.8349Z" fill="#F3F3F9"/> <path d="M57.7585 38.157H42.2412C41.289 38.157 40.5171 38.9425 40.5171 39.9114V73.2453C40.5171 74.2143 41.289 74.9998 42.2412 74.9998H57.7585C58.7107 74.9998 59.4826 74.2143 59.4826 73.2453V39.9114C59.4826 38.9425 58.7107 38.157 57.7585 38.157Z" fill="#484848"/> <path d="M57.7585 38.157H42.2412C41.289 38.157 40.5171 38.9425 40.5171 39.9114V48.6835C40.5171 49.6524 41.289 50.4379 42.2412 50.4379H57.7585C58.7107 50.4379 59.4826 49.6524 59.4826 48.6835V39.9114C59.4826 38.9425 58.7107 38.157 57.7585 38.157Z" fill="#0F0F0F"/> <path d="M59.4831 55.7014V58.1817C59.2065 58.2825 58.9148 58.3337 58.621 58.3331H41.3796C41.0859 58.3337 40.7942 58.2825 40.5176 58.1817V55.7014C40.5179 55.934 40.6088 56.1569 40.7704 56.3213C40.932 56.4858 41.1511 56.5783 41.3796 56.5786H58.621C58.8495 56.5783 59.0686 56.4858 59.2302 56.3213C59.3918 56.1569 59.4828 55.934 59.4831 55.7014V55.7014Z" fill="#E6E6E6"/> <path d="M59.4831 62.719V65.1993C59.2065 65.3 58.9148 65.3512 58.621 65.3506H41.3796C41.0859 65.3512 40.7942 65.3 40.5176 65.1993V62.719C40.5179 62.9515 40.6088 63.1745 40.7704 63.3389C40.932 63.5034 41.1511 63.5959 41.3796 63.5962H58.621C58.8495 63.5959 59.0686 63.5034 59.2302 63.3389C59.3918 63.1745 59.4828 62.9515 59.4831 62.719V62.719Z" fill="#E6E6E6"/> <path d="M59.4831 69.7371V72.2174C59.2065 72.3181 58.9148 72.3693 58.621 72.3687H41.3796C41.0859 72.3693 40.7942 72.3181 40.5176 72.2174V69.7371C40.5179 69.9696 40.6088 70.1926 40.7704 70.357C40.932 70.5214 41.1511 70.614 41.3796 70.6143H58.621C58.8495 70.614 59.0686 70.5214 59.2302 70.357C59.3918 70.1926 59.4828 69.9696 59.4831 69.7371V69.7371Z" fill="#E6E6E6"/> <path d="M46.5522 53.0698H56.8971V54.8242H46.5522V53.0698Z" fill="#E6E6E6"/> <path d="M46.5522 60.0876H56.8971V61.8421H46.5522V60.0876Z" fill="#E6E6E6"/> <path d="M43.103 53.0696H44.8272V54.824H43.103V53.0696Z" fill="#F3F3F9"/> <path d="M43.103 60.0874H44.8272V61.8418H43.103V60.0874Z" fill="#F3F3F9"/> <path d="M43.103 67.1052H44.8272V68.8596H43.103V67.1052Z" fill="#F3F3F9"/> <path d="M46.5522 67.1052H56.8971V68.8596H46.5522V67.1052Z" fill="#E6E6E6"/> <path d="M43.103 40.7888H44.8272V42.5432H43.103V40.7888Z" fill="#F3F3F9"/> <path d="M43.103 44.2976H44.8272V47.8064H43.103V44.2976Z" fill="#F3F3F9"/> <rect x="127" y="42" width="253" height="3" fill="white"/> <rect x="190" y="55" width="253" height="3" fill="white"/> </g> <defs> <clipPath id="clip0"> <rect width="380" height="100" fill="white"/> </clipPath> </defs> </svg>