<?xml version="1.0" encoding="utf-8"?>
<svg version="1.1" id="Icons" x="0px" y="0px" viewBox="0 0 32 32" style="enable-background:new 0 0 32 32;" xmlns="http://www.w3.org/2000/svg">
  <style type="text/css">
	.st0{fill:none;stroke:#000000;stroke-width:2;stroke-linecap:round;stroke-linejoin:round;stroke-miterlimit:10;}
</style>
  <path d="M23.8,16.4l-2-3C21.6,13.2,21.3,13,21,13h-8.5c-1.1-1.3-2.7-2-4.5-2c-3.3,0-5.9,2.6-6,5.9c-0.1,3.2,2.6,6,5.9,6.1 c0,0,0.1,0,0.1,0c2.2,0,3.7-1.3,4.7-2.3c0.6-0.6,1-1,1.3-1.3l1.1,1.2c0.2,0.2,0.5,0.3,0.7,0.3h1.3c0.3,0,0.5-0.1,0.7-0.3l1.1-1.1 l1.1,1.1c0.2,0.2,0.4,0.3,0.7,0.3H21c0.3,0,0.6-0.2,0.8-0.4l2-3C24.1,17.2,24.1,16.8,23.8,16.4z M7,19c-1.1,0-2-0.9-2-2s0.9-2,2-2 s2,0.9,2,2S8.1,19,7,19z" style="fill: rgb(15, 15, 15);"/>
  <polygon points="24,2.6 24,8 29.4,8 " style="fill: rgb(255, 210, 0);"/>
  <path d="M27.5,10H23c-0.6,0-1-0.4-1-1V2H11c-0.6,0-1,0.4-1,1v6.3c1.2,0.3,2.3,0.9,3.3,1.7H21c1,0,1.9,0.5,2.5,1.3l2,3 c0.7,1,0.7,2.3,0,3.3l-2,3C22.9,22.5,22,23,21,23h-0.2c-0.7,0-1.3-0.2-1.8-0.6c-0.5,0.4-1.2,0.6-1.8,0.6h-1.3 c-0.7,0-1.4-0.2-1.9-0.7c-0.7,0.6-2,1.8-3.9,2.4V29c0,0.6,0.4,1,1,1h18c0.6,0,1-0.4,1-1V12.5C30,11.1,28.9,10,27.5,10z" style="fill: rgb(255, 210, 0);"/>
</svg>