<svg width="455" height="455" viewBox="0 0 455 455" fill="none" xmlns="http://www.w3.org/2000/svg">
<g clip-path="url(#clip0)">
<rect width="455" height="455" fill="#2C3036"/>
<path d="M271.375 271.375C235.625 308.263 233.025 354.25 229.937 455C323.862 455 388.7 454.675 422.175 422.175C454.675 388.7 455 320.775 455 229.937C354.25 233.187 308.263 235.625 271.375 271.375V271.375ZM0 229.937C0 320.775 0.325 388.7 32.825 422.175C66.3 454.675 131.138 455 225.063 455C221.813 354.25 219.375 308.263 183.625 271.375C146.738 235.625 100.75 233.025 0 229.937V229.937ZM225.063 0C131.3 0 66.3 0.325 32.825 32.825C0.325 66.3 0 134.225 0 225.063C100.75 221.813 146.738 219.375 183.625 183.625C219.375 146.738 221.975 100.75 225.063 0V0ZM271.375 183.625C235.625 146.738 233.025 100.75 229.937 0C323.862 0 388.7 0.325 422.175 32.825C454.675 66.3 455 134.225 455 225.063C354.25 221.813 308.263 219.375 271.375 183.625" fill="#2C3036"/>
<path d="M455 229.937V225.063C354.25 221.813 308.263 219.375 271.375 183.625C235.625 146.738 233.025 100.75 229.937 0H225.063C221.813 100.75 219.375 146.738 183.625 183.625C146.738 219.375 100.75 221.975 0 225.063V229.937C100.75 233.187 146.738 235.625 183.625 271.375C219.375 308.263 221.975 354.25 225.063 455H229.937C233.187 354.25 235.625 308.263 271.375 271.375C308.263 235.625 354.25 233.025 455 229.937" fill="white"/>
</g>
<defs>
<clipPath id="clip0">
<rect width="455" height="455" fill="white"/>
</clipPath>
</defs>
</svg>
