<svg width="60" height="72" viewBox="0 0 60 72" fill="none" xmlns="http://www.w3.org/2000/svg">
<path d="M39.6121 0V64.2014H25.3367V11.9231H13V0H39.6121Z" fill="#FFD200"/>
<path d="M45.7314 6.36918H46.9553V5.09534H45.7314V6.36918ZM45.7314 70.5706V71.8444H46.9553V70.5706H45.7314ZM31.4561 70.5706H30.2322V71.8444H31.4561V70.5706ZM31.4561 18.2923H32.68V17.0185H31.4561V18.2923ZM19.1194 18.2923H17.8955V19.5661H19.1194V18.2923ZM19.1194 6.36918V5.09534H17.8955V6.36918H19.1194ZM44.5076 6.36918V70.5706H46.9553V6.36918H44.5076ZM45.7314 69.2968H31.4561V71.8444H45.7314V69.2968ZM32.68 70.5706V18.2923H30.2322V70.5706H32.68ZM31.4561 17.0185H19.1194V19.5661H31.4561V17.0185ZM20.3433 18.2923V6.36918H17.8955V18.2923H20.3433ZM19.1194 7.64302H45.7314V5.09534H19.1194V7.64302Z" fill="black"/>
</svg>