<svg width="60" height="72" viewBox="0 0 60 72" fill="none" xmlns="http://www.w3.org/2000/svg">
<path d="M51.3208 52.2703V64.1663H4.81331V54.7036L28.5506 31.7227C31.0708 29.2594 32.7705 27.1565 33.6497 25.4142C34.5288 23.6118 34.9684 21.8394 34.9684 20.097C34.9684 17.5736 34.1186 15.6511 32.4189 14.3293C30.7778 12.9474 28.3454 12.2565 25.1219 12.2565C22.4258 12.2565 19.9934 12.7972 17.8248 13.8787C15.6563 14.9 13.8393 16.4621 12.3741 18.565L2 11.7158C4.40303 8.05083 7.71453 5.19699 11.9345 3.15424C16.1544 1.05142 20.9898 0 26.4406 0C31.0122 0 34.9977 0.781052 38.3971 2.34315C41.8552 3.84517 44.5219 6.00808 46.3975 8.83188C48.3316 11.5956 49.2987 14.87 49.2987 18.6551C49.2987 22.0797 48.5954 25.294 47.1887 28.2981C45.7821 31.3021 43.0567 34.7267 39.0125 38.5719L24.8581 52.2703H51.3208Z" fill="#FFD200"/>
<path d="M57.4259 58.5288H58.647V57.2771H57.4259V58.5288ZM57.4259 70.4248V71.6764H58.647V70.4248H57.4259ZM10.9185 70.4248H9.69744V71.6764H10.9185V70.4248ZM10.9185 60.962L10.0801 60.0521L9.69744 60.4225V60.962H10.9185ZM34.6558 37.9811L35.4942 38.8911L35.4983 38.887L34.6558 37.9811ZM39.7549 31.6726L40.8394 32.2476L40.8433 32.2401L40.847 32.2324L39.7549 31.6726ZM38.5241 20.5877L37.749 21.5549L37.7672 21.5703L37.786 21.5849L38.5241 20.5877ZM23.93 20.1371L24.4398 21.2744L24.4521 21.2687L24.4642 21.2627L23.93 20.1371ZM18.4793 24.8234L17.8181 25.8757L18.7965 26.5216L19.4729 25.5509L18.4793 24.8234ZM8.10519 17.9742L7.09178 17.2759L6.39716 18.3354L7.44402 19.0265L8.10519 17.9742ZM18.0397 9.41267L18.5611 10.5445L18.5673 10.5415L18.5735 10.5384L18.0397 9.41267ZM44.5023 8.60158L44.0029 9.74374L44.0143 9.749L44.0259 9.75407L44.5023 8.60158ZM52.5027 15.0903L51.4933 15.7948L51.5018 15.8075L51.5105 15.8199L52.5027 15.0903ZM53.2939 34.5565L54.3947 35.0982L53.2939 34.5565ZM45.1177 44.8303L44.2874 43.9127L44.2834 43.9164L44.2795 43.9202L45.1177 44.8303ZM30.9633 58.5288L30.125 57.6186L27.8912 59.7804H30.9633V58.5288ZM56.2049 58.5288V70.4248H58.647V58.5288H56.2049ZM57.4259 69.1731H10.9185V71.6764H57.4259V69.1731ZM12.1395 70.4248V60.962H9.69744V70.4248H12.1395ZM11.7569 61.872L35.4941 38.8911L33.8174 37.0711L10.0801 60.0521L11.7569 61.872ZM35.4983 38.887C38.0501 36.393 39.8665 34.1757 40.8394 32.2476L38.6703 31.0976C37.8849 32.6542 36.3019 34.6426 33.8132 37.0752L35.4983 38.887ZM40.847 32.2324C41.7977 30.2834 42.2947 28.3204 42.2947 26.3555H39.8526C39.8526 27.8752 39.4704 29.457 38.6627 31.1129L40.847 32.2324ZM42.2947 26.3555C42.2947 23.5089 41.3156 21.1875 39.2621 19.5905L37.786 21.5849C39.132 22.6315 39.8526 24.1553 39.8526 26.3555H42.2947ZM39.2991 19.6205C37.3515 17.9806 34.5932 17.2632 31.227 17.2632V19.7666C34.308 19.7666 36.4144 20.4311 37.749 21.5549L39.2991 19.6205ZM31.227 17.2632C28.3679 17.2632 25.7496 17.8378 23.3959 19.0115L24.4642 21.2627C26.4476 20.2735 28.694 19.7666 31.227 19.7666V17.2632ZM23.4202 18.9997C21.0473 20.1173 19.0674 21.8259 17.4856 24.0959L19.4729 25.5509C20.8217 23.6152 22.4756 22.1996 24.4398 21.2744L23.4202 18.9997ZM19.1405 23.7711L8.76639 16.9219L7.44402 19.0265L17.8181 25.8757L19.1405 23.7711ZM9.1186 18.6724C11.3886 15.2104 14.5231 12.4991 18.5611 10.5445L17.5183 8.28084C13.1163 10.4117 9.62784 13.4081 7.09178 17.2759L9.1186 18.6724ZM18.5735 10.5384C22.6022 8.53086 27.2501 7.51011 32.5458 7.51011V5.00674C26.9399 5.00674 21.9171 6.08883 17.5058 8.28697L18.5735 10.5384ZM32.5458 7.51011C36.9834 7.51011 40.792 8.26832 44.0029 9.74374L45.0018 7.45942C41.4139 5.81066 37.2514 5.00674 32.5458 5.00674V7.51011ZM44.0259 9.75407C47.2963 11.1745 49.766 13.1941 51.4933 15.7948L53.512 14.3859C51.4882 11.3389 48.6244 9.0326 44.9787 7.44909L44.0259 9.75407ZM51.5105 15.8199C53.2791 18.3471 54.1828 21.3593 54.1828 24.9135H56.6249C56.6249 20.8976 55.5945 17.3609 53.4948 14.3607L51.5105 15.8199ZM54.1828 24.9135C54.1828 28.156 53.5184 31.1847 52.1931 34.0148L54.3947 35.0982C55.8828 31.9203 56.6249 28.5203 56.6249 24.9135H54.1828ZM52.1931 34.0148C50.8834 36.8118 48.2864 40.1104 44.2874 43.9127L45.9481 45.748C50.0374 41.86 52.8911 38.3092 54.3947 35.0982L52.1931 34.0148ZM44.2795 43.9202L30.125 57.6186L31.8015 59.4389L45.956 45.7405L44.2795 43.9202ZM30.9633 59.7804H57.4259V57.2771H30.9633V59.7804Z" fill="black"/>
</svg>