<svg width="60" height="72" viewBox="0 0 60 72" fill="none" xmlns="http://www.w3.org/2000/svg">
<path d="M34.669 25.8005C40.1286 26.7058 44.3124 28.7879 47.2203 32.0469C50.1281 35.2456 51.582 39.2288 51.582 43.9966C51.582 47.6781 50.6325 51.088 48.7335 54.2263C46.8345 57.3043 43.9267 59.7787 40.0099 61.6496C36.1526 63.5205 31.405 64.456 25.7673 64.456C21.3759 64.456 17.0437 63.8826 12.771 62.736C8.55753 61.5289 4.96721 59.8391 2 57.6664L7.60802 46.4409C9.98179 48.2515 12.7116 49.6697 15.7975 50.6957C18.9428 51.6614 22.1473 52.1442 25.4113 52.1442C29.0313 52.1442 31.8798 51.4501 33.9568 50.062C36.0339 48.6136 37.0724 46.5918 37.0724 43.9966C37.0724 38.8064 33.1854 36.2112 25.4113 36.2112H18.8241V26.5247L31.6424 11.7687H5.11557V0H48.7335V9.50545L34.669 25.8005Z" fill="#FFD200"/>
<path d="M40.8506 32.0872L39.9214 31.2577L38.4496 32.963L40.6517 33.3281L40.8506 32.0872ZM53.4019 38.3336L52.4863 39.1785L52.4902 39.1829L52.4941 39.1872L53.4019 38.3336ZM54.9152 60.513L55.9624 61.1813L55.9653 61.1766L55.9681 61.172L54.9152 60.513ZM46.1916 67.9363L45.666 66.7984L45.6594 66.8015L46.1916 67.9363ZM18.9526 69.0226L18.6174 70.2328L18.6273 70.236L18.6372 70.2385L18.9526 69.0226ZM8.18166 63.9531L7.07942 63.3835L6.59961 64.3441L7.45926 64.9734L8.18166 63.9531ZM13.7897 52.7276L14.5315 51.7217L13.3541 50.8237L12.6874 52.1581L13.7897 52.7276ZM21.9792 56.9824L21.595 58.1775L21.6084 58.182L21.6219 58.1861L21.9792 56.9824ZM40.1385 56.3487L40.8175 57.3995L40.8276 57.3927L40.8377 57.3857L40.1385 56.3487ZM25.0057 42.4979H23.7694V43.7552H25.0057V42.4979ZM25.0057 32.8114L24.0792 31.9789L23.7694 32.3356V32.8114H25.0057ZM37.8241 18.0553L38.7506 18.8877L40.5659 16.798H37.8241V18.0553ZM11.2972 18.0553H10.0609V19.3127H11.2972V18.0553ZM11.2972 6.28668V5.02934H10.0609V6.28668H11.2972ZM54.9152 6.28668H56.1515V5.02934H54.9152V6.28668ZM54.9152 15.7921L55.8443 16.6216L56.1515 16.2657V15.7921H54.9152ZM40.6517 33.3281C45.9133 34.2006 49.8134 36.1828 52.4863 39.1785L54.3175 37.4887C51.1747 33.9664 46.7073 31.7844 41.0495 30.8463L40.6517 33.3281ZM52.4941 39.1872C55.17 42.1307 56.5274 45.7994 56.5274 50.2833H59C59 45.2316 57.4495 40.9338 54.3097 37.4801L52.4941 39.1872ZM56.5274 50.2833C56.5274 53.7319 55.6415 56.9137 53.8623 59.854L55.9681 61.172C57.9869 57.8357 59 54.1977 59 50.2833H56.5274ZM53.8679 59.8447C52.1193 62.6789 49.4138 65.008 45.666 66.7984L46.7172 69.0742C50.8028 67.1228 53.9131 64.5031 55.9624 61.1813L53.8679 59.8447ZM45.6594 66.8015C42.0125 68.57 37.4587 69.4853 31.949 69.4853V72C37.7146 72 42.656 71.0444 46.7238 69.071L45.6594 66.8015ZM31.949 69.4853C27.6647 69.4853 23.4385 68.9264 19.2681 67.8068L18.6372 70.2385C23.0123 71.4122 27.4504 72 31.949 72V69.4853ZM19.2879 67.8124C15.1867 66.6375 11.7335 65.0048 8.90405 62.9327L7.45926 64.9734C10.5642 67.2466 14.2917 68.9937 18.6174 70.2328L19.2879 67.8124ZM9.28391 64.5226L14.8919 53.2971L12.6874 52.1581L7.07942 63.3835L9.28391 64.5226ZM13.0479 53.7334C15.5396 55.634 18.3926 57.1128 21.595 58.1775L22.3634 55.7873C19.394 54.8 16.7873 53.4423 14.5315 51.7217L13.0479 53.7334ZM21.6219 58.1861C24.8822 59.1871 28.2072 59.6882 31.5929 59.6882V57.1735C28.4508 57.1735 25.3666 56.709 22.3365 55.7787L21.6219 58.1861ZM31.5929 59.6882C35.3498 59.6882 38.4663 58.9707 40.8175 57.3995L39.4595 55.2979C37.6565 56.5028 35.076 57.1735 31.5929 57.1735V59.6882ZM40.8377 57.3857C43.2562 55.699 44.4904 53.2865 44.4904 50.2833H42.0177C42.0177 52.4705 41.1748 54.1015 39.4393 55.3117L40.8377 57.3857ZM44.4904 50.2833C44.4904 47.3136 43.3473 44.9488 41.0173 43.3932C38.7779 41.8981 35.5759 41.2406 31.5929 41.2406V43.7552C35.384 43.7552 38.0126 44.3953 39.6603 45.4953C41.2173 46.5348 42.0177 48.0628 42.0177 50.2833H44.4904ZM31.5929 41.2406H25.0057V43.7552H31.5929V41.2406ZM26.2421 42.4979V32.8114H23.7694V42.4979H26.2421ZM25.9323 33.6439L38.7506 18.8877L36.8975 17.2228L24.0792 31.9789L25.9323 33.6439ZM37.8241 16.798H11.2972V19.3127H37.8241V16.798ZM12.5336 18.0553V6.28668H10.0609V18.0553H12.5336ZM11.2972 7.54402H54.9152V5.02934H11.2972V7.54402ZM53.6788 6.28668V15.7921H56.1515V6.28668H53.6788ZM53.986 14.9627L39.9214 31.2577L41.7798 32.9166L55.8443 16.6216L53.986 14.9627Z" fill="black"/>
</svg>