<svg width="57" height="70" viewBox="0 0 57 70" fill="none" xmlns="http://www.w3.org/2000/svg">
<path d="M24.273 22.981C32.857 22.981 39.179 24.692 43.239 28.114C47.357 31.536 49.416 36.118 49.416 41.86C49.416 45.572 48.488 48.965 46.632 52.039C44.776 55.055 41.934 57.491 38.106 59.347C34.336 61.145 29.667 62.044 24.099 62.044C19.807 62.044 15.573 61.493 11.397 60.391C7.279 59.231 3.77 57.607 0.869995 55.519L6.438 44.731C8.758 46.471 11.426 47.834 14.442 48.82C17.458 49.748 20.561 50.212 23.751 50.212C27.289 50.212 30.073 49.516 32.103 48.124C34.133 46.732 35.148 44.789 35.148 42.295C35.148 39.685 34.075 37.713 31.929 36.379C29.841 35.045 26.187 34.378 20.967 34.378H5.394L8.526 0.100006H45.675V11.41H20.271L19.314 22.981H24.273Z" fill="#FFD200"/>
<path fill-rule="evenodd" clip-rule="evenodd" d="M13.385 4.85001H52.925V18.66H27.4219L26.6716 27.731H30.273C38.9793 27.731 45.6527 29.4587 50.0409 33.1551C54.4655 36.8333 56.666 41.7785 56.666 47.86C56.666 51.7917 55.6799 55.4094 53.7021 58.6851L53.6966 58.6941C51.6926 61.9506 48.6501 64.533 44.6513 66.4718L44.6441 66.4753C40.6598 68.3755 35.7941 69.294 30.099 69.294C25.6987 69.294 21.3575 68.7289 17.0781 67.5996L17.068 67.597L17.0581 67.5942C12.8265 66.4022 9.17886 64.7217 6.13961 62.5334L5.26483 61.9036L12.0053 48.844L13.188 49.731C15.3861 51.3796 17.9261 52.6813 20.8199 53.6285C23.7123 54.5173 26.6879 54.962 29.751 54.962C33.1422 54.962 35.647 54.2925 37.3961 53.0931C39.0808 51.9379 39.898 50.3834 39.898 48.295C39.898 46.0998 39.0337 44.5375 37.2691 43.4406L37.2625 43.4365L37.256 43.4324C35.4936 42.3064 32.1602 41.628 26.967 41.628H10.0246L13.385 4.85001ZM15.667 7.35001H50.425V16.16H25.1201L23.9563 30.231H30.273C38.7322 30.231 44.7015 31.9243 48.4334 35.0698L48.4401 35.0754C52.2495 38.241 54.166 42.4589 54.166 47.86C54.166 51.3506 53.297 54.5174 51.5646 57.3885C49.857 60.1611 47.2176 62.4485 43.5642 64.2205C40.0091 65.9152 35.538 66.794 30.099 66.794C25.9187 66.794 21.7951 66.2579 17.7257 65.185C14.144 64.1751 11.0699 62.8135 8.48576 61.1139L12.89 52.5807C15.0326 54.0071 17.4228 55.1481 20.0536 56.0081L20.064 56.0115L20.0744 56.0147C23.2108 56.9798 26.4378 57.462 29.751 57.462C33.4358 57.462 36.499 56.7395 38.8099 55.1549C41.1852 53.5262 42.398 51.1946 42.398 48.295C42.398 45.2728 41.1185 42.8926 38.5954 41.3215C36.1813 39.7825 32.2091 39.128 26.967 39.128H12.7634L15.667 7.35001Z" fill="black"/>
</svg>