<svg width="58" height="71" viewBox="0 0 58 71" fill="none" xmlns="http://www.w3.org/2000/svg">
<path d="M29.712 23.807C33.598 23.807 37.136 24.59 40.326 26.156C43.516 27.722 46.039 29.955 47.895 32.855C49.751 35.697 50.679 39.003 50.679 42.773C50.679 46.833 49.664 50.4 47.634 53.474C45.604 56.548 42.82 58.926 39.282 60.608C35.802 62.232 31.916 63.044 27.624 63.044C19.098 63.044 12.428 60.434 7.614 55.214C2.8 49.994 0.393 42.541 0.393 32.855C0.393 25.953 1.698 20.037 4.308 15.107C6.918 10.177 10.543 6.436 15.183 3.884C19.881 1.332 25.304 0.0559998 31.452 0.0559998C34.7 0.0559998 37.803 0.432997 40.761 1.18699C43.777 1.883 46.329 2.898 48.417 4.232L43.197 14.585C40.181 12.555 36.382 11.54 31.8 11.54C26.638 11.54 22.549 13.048 19.533 16.064C16.517 19.08 14.893 23.459 14.661 29.201C18.257 25.605 23.274 23.807 29.712 23.807ZM26.841 52.517C29.857 52.517 32.293 51.705 34.149 50.081C36.063 48.457 37.02 46.253 37.02 43.469C37.02 40.685 36.063 38.481 34.149 36.857C32.293 35.175 29.799 34.334 26.667 34.334C23.593 34.334 21.07 35.204 19.098 36.944C17.126 38.626 16.14 40.801 16.14 43.469C16.14 46.137 17.097 48.312 19.011 49.994C20.925 51.676 23.535 52.517 26.841 52.517Z" fill="#FFD200"/>
<path fill-rule="evenodd" clip-rule="evenodd" d="M37.452 7.306C31.4821 7.306 26.2707 8.54344 21.7823 10.981C17.3691 13.409 13.9145 16.9663 11.4127 21.6919C8.91817 26.4038 7.643 32.1093 7.643 38.855C7.643 48.3427 9.99905 55.4504 14.5329 60.3666C19.0632 65.279 25.3711 67.794 33.624 67.794C37.7531 67.794 41.4541 67.0141 44.7489 65.4774C48.093 63.8868 50.6952 61.6559 52.5909 58.7852C54.4723 55.9362 55.429 52.6141 55.429 48.773C55.429 45.2179 54.5572 42.1551 52.8484 39.5385L52.8421 39.5288C51.1134 36.8277 48.7669 34.7468 45.7752 33.2781C42.7722 31.8039 39.4252 31.057 35.712 31.057C29.5128 31.057 24.8482 32.7816 21.5449 36.0849L19.2829 38.3469L19.412 35.1505C19.6522 29.2056 21.3434 24.4858 24.6491 21.1801C27.9474 17.8819 32.3809 16.29 37.8 16.29C41.9979 16.29 45.6473 17.11 48.6922 18.8096L52.7757 10.7109C51.0175 9.74246 48.9245 8.96911 46.4799 8.40498L46.466 8.40178L46.4522 8.39826C43.6014 7.67158 40.6025 7.306 37.452 7.306ZM20.5863 8.78559C25.4933 6.12008 31.1271 4.806 37.452 4.806C40.7925 4.806 43.995 5.19325 47.0559 5.9722C50.1719 6.69257 52.8593 7.75345 55.09 9.17863L56.0415 9.78654L49.675 22.4135L48.499 21.622C45.7372 19.763 42.1981 18.79 37.8 18.79C32.8951 18.79 29.1506 20.2141 26.4169 22.9479C24.1999 25.1649 22.7562 28.2495 22.1739 32.3032C25.7711 29.78 30.3143 28.557 35.712 28.557C39.7708 28.557 43.4998 29.3761 46.8768 31.0339C50.2632 32.6963 52.9616 35.0797 54.9446 38.1761C56.9457 41.2424 57.929 44.7901 57.929 48.773C57.929 53.0519 56.8557 56.8638 54.6771 60.1628C52.5135 63.4391 49.5489 65.9636 45.8187 67.7369L45.8106 67.7407C42.1466 69.4506 38.077 70.294 33.624 70.294C24.8249 70.294 17.7928 67.589 12.6951 62.0614C7.60095 56.5376 5.143 48.7393 5.143 38.855C5.143 31.7967 6.47783 25.6702 9.20327 20.5221C11.9209 15.3888 15.7153 11.4647 20.5806 8.78873L20.5863 8.78559ZM24.2788 41.9998C26.5157 40.0297 29.3468 39.084 32.667 39.084C36.0205 39.084 38.8356 39.9875 40.9732 41.917C43.1893 43.805 44.27 46.3702 44.27 49.469C44.27 52.5715 43.1867 55.1392 40.9652 57.0278C38.8344 58.8889 36.0859 59.767 32.841 59.767C29.3237 59.767 26.389 58.869 24.1859 56.933C21.9877 55.0012 20.89 52.4773 20.89 49.469C20.89 46.451 22.0244 43.9263 24.2788 41.9998ZM32.667 41.584C29.8431 41.584 27.6309 42.3761 25.925 43.8813L25.9172 43.8882L25.9092 43.895C24.2249 45.3317 23.39 47.1546 23.39 49.469C23.39 51.7967 24.2063 53.6228 25.8361 55.055C27.461 56.483 29.7463 57.267 32.841 57.267C35.6246 57.267 37.7457 56.523 39.3259 55.1403L39.333 55.134L39.3403 55.1279C40.9417 53.7691 41.77 51.931 41.77 49.469C41.77 47.007 40.9417 45.1689 39.3403 43.8101L39.3247 43.7969L39.3096 43.7832C37.7371 42.3582 35.5696 41.584 32.667 41.584Z" fill="black"/>
</svg>