<svg width="59" height="71" viewBox="0 0 59 71" fill="none" xmlns="http://www.w3.org/2000/svg">
<path d="M42.066 29.984C45.082 31.492 47.373 33.464 48.939 35.9C50.563 38.336 51.375 41.149 51.375 44.339C51.375 48.109 50.302 51.415 48.156 54.257C46.01 57.041 42.994 59.216 39.108 60.782C35.222 62.29 30.727 63.044 25.623 63.044C20.519 63.044 16.024 62.29 12.138 60.782C8.31 59.216 5.323 57.041 3.177 54.257C1.089 51.415 0.0449982 48.109 0.0449982 44.339C0.0449982 41.149 0.827998 38.336 2.394 35.9C4.018 33.464 6.309 31.492 9.267 29.984C7.005 28.592 5.265 26.852 4.047 24.764C2.829 22.618 2.22 20.182 2.22 17.456C2.22 13.918 3.206 10.844 5.178 8.234C7.15 5.624 9.905 3.623 13.443 2.231C16.981 0.780998 21.041 0.0559998 25.623 0.0559998C30.263 0.0559998 34.352 0.780998 37.89 2.231C41.486 3.623 44.27 5.624 46.242 8.234C48.214 10.844 49.2 13.918 49.2 17.456C49.2 20.182 48.591 22.618 47.373 24.764C46.155 26.852 44.386 28.592 42.066 29.984ZM25.623 10.409C22.781 10.409 20.49 11.105 18.75 12.497C17.068 13.831 16.227 15.687 16.227 18.065C16.227 20.385 17.068 22.212 18.75 23.546C20.432 24.88 22.723 25.547 25.623 25.547C28.523 25.547 30.843 24.88 32.583 23.546C34.323 22.212 35.193 20.385 35.193 18.065C35.193 15.687 34.323 13.831 32.583 12.497C30.843 11.105 28.523 10.409 25.623 10.409ZM25.623 52.691C29.161 52.691 31.945 51.908 33.975 50.342C36.063 48.718 37.107 46.572 37.107 43.904C37.107 41.236 36.063 39.119 33.975 37.553C31.945 35.987 29.161 35.204 25.623 35.204C22.143 35.204 19.388 35.987 17.358 37.553C15.328 39.119 14.313 41.236 14.313 43.904C14.313 46.63 15.328 48.776 17.358 50.342C19.388 51.908 22.143 52.691 25.623 52.691Z" fill="#FFD200"/>
<path fill-rule="evenodd" clip-rule="evenodd" d="M31.623 7.306C27.172 7.306 23.2779 8.01021 19.917 9.38763L19.9089 9.39097L19.9007 9.39421C16.5415 10.7158 13.9874 12.5893 12.1753 14.9875C10.3809 17.3625 9.47 20.1664 9.47 23.456C9.47 25.9861 10.0325 28.2034 11.1305 30.1406C12.2347 32.031 13.82 33.6258 15.9221 34.9194L17.8184 36.0864L15.8347 37.0976C13.0452 38.5197 10.9295 40.3537 9.43983 42.5847C8.02017 44.7969 7.295 47.3674 7.295 50.339C7.295 53.857 8.26228 56.8956 10.1758 59.5053C12.1627 62.0783 14.9509 64.1259 18.6007 65.6207C22.3118 67.0591 26.6447 67.794 31.623 67.794C36.6027 67.794 40.9366 67.0587 44.6484 65.6195C48.3615 64.122 51.1775 62.0714 53.162 59.499C55.1319 56.8882 56.125 53.852 56.125 50.339C56.125 47.3727 55.3738 44.8056 53.8989 42.5934L53.8932 42.5847L53.8875 42.5759C52.4617 40.358 50.3555 38.5263 47.507 37.102L45.4703 36.0837L47.4229 34.9121C49.5819 33.6167 51.1898 32.0232 52.2895 30.1406C53.3875 28.2034 53.95 25.9861 53.95 23.456C53.95 20.1664 53.0391 17.3625 51.2447 14.9875C49.4362 12.594 46.8572 10.72 43.4388 9.39671L43.4273 9.39228L43.416 9.38763C40.0568 8.01093 36.1342 7.306 31.623 7.306ZM18.9772 7.071C22.6903 5.55069 26.9134 4.806 31.623 4.806C36.3869 4.806 40.6385 5.54955 44.3527 7.06973C48.1209 8.53033 51.106 10.6569 53.2393 13.4805C55.3889 16.3255 56.45 19.6696 56.45 23.456C56.45 26.3751 55.7958 29.0277 54.4601 31.381L54.4565 31.3874L54.4527 31.3938C53.4467 33.1185 52.1046 34.6128 50.445 35.8807C52.7623 37.3199 54.6195 39.0944 55.9848 41.2152C57.7541 43.873 58.625 46.929 58.625 50.339C58.625 54.3638 57.4733 57.9381 55.1536 61.0103L55.1461 61.0202L55.146 61.0201C52.8401 64.0115 49.6279 66.3082 45.5752 67.9414L45.5677 67.9444L45.5602 67.9473C41.5017 69.5223 36.848 70.294 31.623 70.294C26.398 70.294 21.7443 69.5223 17.6858 67.9473L17.6752 67.9432L17.6647 67.9389C13.6691 66.3044 10.4896 64.0073 8.18699 61.0201L8.17818 61.0087L8.16965 60.9971C5.91284 57.9253 4.795 54.3557 4.795 50.339C4.795 46.9346 5.6339 43.8819 7.34253 41.2241L7.34816 41.2153L7.35394 41.2066C8.7637 39.092 10.6277 37.3181 12.9213 35.8773C11.2942 34.6083 9.97107 33.1146 8.96727 31.3938L8.96354 31.3874L8.95989 31.381C7.62423 29.0277 6.97 26.3751 6.97 23.456C6.97 19.6696 8.03106 16.3255 10.1807 13.4805C12.3111 10.6608 15.2641 8.53328 18.9772 7.071ZM23.9712 17.5193C25.9875 15.9071 28.5777 15.159 31.623 15.159C34.7153 15.159 37.3343 15.9018 39.3538 17.5128C41.4244 19.1051 42.443 21.3406 42.443 24.065C42.443 26.7475 41.4124 28.9519 39.3435 30.538C37.3241 32.0862 34.7094 32.797 31.623 32.797C28.5395 32.797 25.9427 32.0873 23.9733 30.5254C21.9656 28.9331 20.977 26.7312 20.977 24.065C20.977 21.3532 21.9567 19.1179 23.9712 17.5193ZM31.623 17.659C28.9854 17.659 26.9943 18.3024 25.5309 19.4731L25.5267 19.4764C24.1786 20.5456 23.477 22.0217 23.477 24.065C23.477 26.0388 24.1704 27.4909 25.5267 28.5666C26.9213 29.6727 28.9065 30.297 31.623 30.297C34.3366 30.297 36.3619 29.6738 37.8225 28.554C39.2336 27.4721 39.943 26.0225 39.943 24.065C39.943 22.0378 39.225 20.5643 37.8225 19.489L37.8122 19.4812L37.8021 19.4731C36.3429 18.3057 34.3255 17.659 31.623 17.659ZM22.5945 42.5633C24.9097 40.7772 27.9645 39.954 31.623 39.954C35.3303 39.954 38.414 40.7731 40.7317 42.558C43.1382 44.3658 44.357 46.8557 44.357 49.904C44.357 52.9538 43.138 55.4655 40.7424 57.3287L40.7385 57.3317C38.42 59.1203 35.3339 59.941 31.623 59.941C27.9645 59.941 24.9097 59.1178 22.5945 57.3317C20.2359 55.5122 19.063 52.9891 19.063 49.904C19.063 46.8669 20.2434 44.3769 22.5945 42.5633ZM31.623 42.454C28.3215 42.454 25.8663 43.1968 24.1215 44.5427C22.4125 45.8611 21.563 47.6051 21.563 49.904C21.563 52.2709 22.4201 54.0398 24.1215 55.3523C25.8663 56.6982 28.3215 57.441 31.623 57.441C34.9867 57.441 37.468 56.6963 39.2094 55.3539C40.9886 53.9693 41.857 52.1894 41.857 49.904C41.857 47.6192 40.9901 45.8768 39.225 44.553L39.2182 44.5479L39.2115 44.5427C37.47 43.1993 34.9881 42.454 31.623 42.454Z" fill="black"/>
</svg>